<svg xmlns="http://www.w3.org/2000/svg" width="209.447" height="73.971" viewBox="0 0 209.447 73.971">
  <g id="ARTWORK" transform="translate(-3.93 0.01)">
    <g id="Group_7" data-name="Group 7" transform="translate(3.93 -0.01)">
      <g id="Group_1" data-name="Group 1" transform="translate(0.017 41.98)">
        <path id="Path_1" data-name="Path 1" d="M2.97,100.31H6.107a2.725,2.725,0,0,1,2.742,1.556,10.6,10.6,0,0,1,.454,3.221c0,2.174-.2,3.436-.622,4.113-.551.875-1.581,1.316-3.364,1.316H2.97Zm1.3,9.076H5.5c1.808,0,2.473-.681,2.473-3.053v-2.065c0-2.065-.635-2.826-1.993-2.826H4.27Z" transform="translate(-2.97 -100.1)" fill="#0a0203"/>
        <path id="Path_2" data-name="Path 2" d="M22.59,110.523v-10.2h5.257v1.127H23.89v3.28h3.676v1.131H23.89v3.533h4.042v1.131Z" transform="translate(-14.339 -100.106)" fill="#0a0203"/>
        <path id="Path_3" data-name="Path 3" d="M38.96,110.523v-10.2h3.024c1.371,0,2.843.509,2.843,2.914a2.638,2.638,0,0,1-2.856,2.8H40.259v4.492Zm1.3-5.627h1.43a1.621,1.621,0,0,0,1.808-1.737c0-1.556-1.157-1.707-1.442-1.707h-1.8Z" transform="translate(-23.824 -100.106)" fill="#0a0203"/>
        <path id="Path_4" data-name="Path 4" d="M55.748,100.31H57.4l3.322,10.2H59.268l-.736-2.431H54.588l-.765,2.431H52.51Zm.786,1.2h-.029l-1.6,5.442h3.263Z" transform="translate(-31.676 -100.1)" fill="#0a0203"/>
        <path id="Path_5" data-name="Path 5" d="M75.65,105.829v4.693h-1.3v-10.2h3.52a2.306,2.306,0,0,1,2.448,2.544,2.2,2.2,0,0,1-1.867,2.33v.029c1.173.185,1.6.58,1.67,2.628a15.277,15.277,0,0,0,.353,2.671H79.115a11.767,11.767,0,0,1-.4-3.39,1.346,1.346,0,0,0-1.543-1.3H75.65Zm0-1.131H77.6c.934,0,1.384-.807,1.384-1.695a1.387,1.387,0,0,0-1.371-1.556H75.65Z" transform="translate(-44.331 -100.106)" fill="#0a0203"/>
        <path id="Path_6" data-name="Path 6" d="M96.686,100.31v1.131H94v9.071H92.7v-9.071H90.02V100.31Z" transform="translate(-53.411 -100.1)" fill="#0a0203"/>
        <path id="Path_7" data-name="Path 7" d="M109.475,110.523H108.26v-10.2h2.107l2.574,8.567h.029l2.6-8.567h2.149v10.2h-1.3v-9.076h-.029l-2.856,9.071h-1.228l-2.805-9.071h-.029v9.076Z" transform="translate(-63.98 -100.106)" fill="#0a0203"/>
        <path id="Path_8" data-name="Path 8" d="M135.37,110.523v-10.2h5.257v1.127h-3.957v3.28h3.676v1.131h-3.676v3.533h4.042v1.131Z" transform="translate(-79.689 -100.106)" fill="#0a0203"/>
        <path id="Path_9" data-name="Path 9" d="M158.492,100.31v10.2h-1.783l-4.029-8.848h-.029v8.848H151.49v-10.2h1.838l3.974,8.735h.029V100.31Z" transform="translate(-89.029 -100.1)" fill="#0a0203"/>
        <path id="Path_10" data-name="Path 10" d="M177.336,100.31v1.131h-2.683v9.071h-1.3v-9.071H170.67V100.31Z" transform="translate(-100.143 -100.1)" fill="#0a0203"/>
        <path id="Path_11" data-name="Path 11" d="M195.39,106.5v-3.352c0-2.035,1.047-3.335,3.209-3.335s3.209,1.3,3.209,3.335V106.5c0,2.826-1.043,3.945-3.209,3.945S195.39,109.323,195.39,106.5Zm5.089.055V103.1c0-2.136-1.472-2.208-1.88-2.208s-1.88.071-1.88,2.208v3.449c0,2.233.648,2.8,1.88,2.8S200.479,108.785,200.479,106.551Z" transform="translate(-114.467 -99.81)" fill="#0a0203"/>
        <path id="Path_12" data-name="Path 12" d="M214.95,110.523v-10.2h5.059v1.127h-3.76v3.28h3.562v1.131h-3.562v4.664Z" transform="translate(-125.801 -100.106)" fill="#0a0203"/>
        <path id="Path_13" data-name="Path 13" d="M235.65,110.523v-10.2h5.059v1.127h-3.76v3.28h3.562v1.131h-3.562v4.664Z" transform="translate(-137.796 -100.106)" fill="#0a0203"/>
        <path id="Path_14" data-name="Path 14" d="M251.669,110.523h-1.3v-10.2h1.3Z" transform="translate(-146.325 -100.106)" fill="#0a0203"/>
        <path id="Path_15" data-name="Path 15" d="M265.624,100.31v10.2h-1.779l-4.029-8.848h-.029v8.848H258.63v-10.2h1.838l3.97,8.735h.029V100.31Z" transform="translate(-151.111 -100.1)" fill="#0a0203"/>
        <path id="Path_16" data-name="Path 16" d="M281.042,100.31H282.7l3.322,10.2h-1.455l-.736-2.431h-3.945l-.765,2.431H277.8Zm.791,1.2H281.8l-1.6,5.442h3.263Z" transform="translate(-162.219 -100.1)" fill="#0a0203"/>
        <path id="Path_17" data-name="Path 17" d="M306.882,100.31v10.2H305.1l-4.029-8.848h-.029v8.848H299.88v-10.2h1.838l3.97,8.735h.029V100.31Z" transform="translate(-175.013 -100.1)" fill="#0a0203"/>
        <path id="Path_18" data-name="Path 18" d="M325.639,102.834a2.409,2.409,0,0,0-.294-1.485,1.709,1.709,0,0,0-1.144-.437,1.6,1.6,0,0,0-1.543.791c-.042.114-.3.366-.3,2.12v2.729c0,2.5.82,2.8,1.825,2.8.4,0,1.6-.143,1.611-2.136h1.342c.059,3.221-2.221,3.221-2.885,3.221-1.27,0-3.221-.084-3.221-4.042v-2.881c0-2.885,1.27-3.7,3.28-3.7s2.8,1.043,2.67,3.024Z" transform="translate(-187.269 -99.81)" fill="#0a0203"/>
        <path id="Path_19" data-name="Path 19" d="M339.15,110.523v-10.2h5.257v1.127h-3.957v3.28h3.676v1.131h-3.676v3.533h4.042v1.131Z" transform="translate(-197.768 -100.106)" fill="#0a0203"/>
      </g>
      <g id="Group_2" data-name="Group 2" transform="translate(0 19.413)">
        <path id="Path_20" data-name="Path 20" d="M7.216,50.563a.812.812,0,0,0,0-1.623.788.788,0,0,0-.576.24.8.8,0,0,0,0,1.144A.788.788,0,0,0,7.216,50.563Z" transform="translate(-4.941 -47.767)" fill="#0a0203"/>
        <path id="Path_21" data-name="Path 21" d="M13.636,50.563a.788.788,0,0,0,.576-.24.8.8,0,0,0,0-1.144.812.812,0,0,0-1.152,0,.8.8,0,0,0,0,1.144A.8.8,0,0,0,13.636,50.563Z" transform="translate(-8.661 -47.767)" fill="#0a0203"/>
        <path id="Path_22" data-name="Path 22" d="M69.416,80.38a.788.788,0,0,0-.576.24.807.807,0,1,0,.576-.24Z" transform="translate(-40.982 -65.984)" fill="#0a0203"/>
        <path id="Path_23" data-name="Path 23" d="M63.616,80.38a.788.788,0,0,0-.576.24.807.807,0,1,0,.576-.24Z" transform="translate(-37.621 -65.984)" fill="#0a0203"/>
        <path id="Path_24" data-name="Path 24" d="M51.407,57.534h-19.4v-6.1H30.766v6.1H9.053c-.189,0-.286-.114-.286-.336V50.145a15.953,15.953,0,0,0-1.577.564,9.608,9.608,0,0,0-1.926,1.064,6.9,6.9,0,0,0-1.64,1.64A3.808,3.808,0,0,0,2.93,55.7a3.958,3.958,0,0,0,.143,1.039,2.454,2.454,0,0,0,.551,1.005,3.311,3.311,0,0,0,1.161.8,5.726,5.726,0,0,0,1.972.4l.1-1.245a4.524,4.524,0,0,1-2.031-.538,1.621,1.621,0,0,1-.648-1.472,2.6,2.6,0,0,1,.362-1.363A4.569,4.569,0,0,1,5.4,53.278,5.891,5.891,0,0,1,6.488,52.5c.387-.214.723-.4,1.014-.538l.025,5.24A1.687,1.687,0,0,0,7.9,58.375a1.279,1.279,0,0,0,.988.408H52.652V46.15H51.407Z" transform="translate(-2.93 -46.15)" fill="#0a0203"/>
        <path id="Path_25" data-name="Path 25" d="M171.315,57.534h-19.4V50.671a11.462,11.462,0,0,0-1.51.273,7.594,7.594,0,0,0-1.918.753,5.848,5.848,0,0,0-1.657,1.375,3.183,3.183,0,0,0-.7,2.094,3.824,3.824,0,0,0,.223,1.4,3.28,3.28,0,0,0,.576.967H126.955V46.217H125.71V58.775h46.85V46.15h-1.245Zm-20.641-.05a5.615,5.615,0,0,1-2.435-.513,1.854,1.854,0,0,1-.866-1.8,2.022,2.022,0,0,1,.349-1.173,3.377,3.377,0,0,1,.866-.862,5.946,5.946,0,0,1,1.085-.6,8.227,8.227,0,0,1,1-.357v5.307Z" transform="translate(-74.074 -46.15)" fill="#0a0203"/>
        <rect id="Rectangle_5" data-name="Rectangle 5" width="1.245" height="12.558" transform="translate(100.395 0.071)" fill="#0a0203"/>
        <path id="Path_26" data-name="Path 26" d="M265.212,50.563a.819.819,0,1,0-.572-.24A.778.778,0,0,0,265.212,50.563Z" transform="translate(-154.438 -47.767)" fill="#0a0203"/>
        <path id="Path_27" data-name="Path 27" d="M271.636,50.563a.812.812,0,0,0,0-1.623.788.788,0,0,0-.576.24.8.8,0,0,0,0,1.144A.788.788,0,0,0,271.636,50.563Z" transform="translate(-158.158 -47.767)" fill="#0a0203"/>
        <path id="Path_28" data-name="Path 28" d="M264.214,56.488a10.231,10.231,0,0,0-1.3.732,6.574,6.574,0,0,0-1.186.993,5.014,5.014,0,0,0-.858,1.266,3.618,3.618,0,0,0-.336,1.569A2.579,2.579,0,0,0,261,62.615a3.647,3.647,0,0,0,1.148,1.018,5.226,5.226,0,0,0,1.459.551,6.865,6.865,0,0,0,1.4.168h1.316V55.76a8.918,8.918,0,0,0-.9.252A10.076,10.076,0,0,0,264.214,56.488Zm.858,6.565h-.139a6.107,6.107,0,0,1-1.03-.1,3.5,3.5,0,0,1-1.026-.336,2.376,2.376,0,0,1-.791-.622,1.445,1.445,0,0,1-.311-.934,2.377,2.377,0,0,1,.357-1.291,4.751,4.751,0,0,1,.858-1.018A5.838,5.838,0,0,1,264.067,58c.383-.206.719-.374,1.005-.5v5.551Z" transform="translate(-152.195 -51.718)" fill="#0a0203"/>
        <path id="Path_29" data-name="Path 29" d="M319.627,50.2a2.544,2.544,0,0,1,1.03.244l.24-.606a3.362,3.362,0,0,0-1.291-.265,1.6,1.6,0,0,0-.887.265,1.008,1.008,0,0,0-.4.921,1.543,1.543,0,0,0,.1.555.59.59,0,0,0,.189.315h-1.03v.622h3.2v-.622h-.6a1.737,1.737,0,0,1-.883-.206.706.706,0,0,1-.357-.664.471.471,0,0,1,.193-.437A.859.859,0,0,1,319.627,50.2Z" transform="translate(-185.247 -48.132)" fill="#0a0203"/>
        <path id="Path_30" data-name="Path 30" d="M294.26,64.783H277.879V58.66h-1.245v7.915c0,.429-.017.845-.05,1.245a3.378,3.378,0,0,1-.252,1.064,1.759,1.759,0,0,1-.61.753,1.87,1.87,0,0,1-1.1.286v1.245a3.189,3.189,0,0,0,1.745-.416,2.731,2.731,0,0,0,.98-1.085,4.472,4.472,0,0,0,.429-1.485,13.875,13.875,0,0,0,.1-1.6v-.551H295.5V58.66h-1.245v6.123Z" transform="translate(-160.36 -53.399)" fill="#0a0203"/>
        <rect id="Rectangle_6" data-name="Rectangle 6" width="1.245" height="12.558" transform="translate(137.079 0.071)" fill="#0a0203"/>
        <path id="Path_31" data-name="Path 31" d="M342.162,59.466a4.591,4.591,0,0,0-.707-1.472,3.575,3.575,0,0,0-1.186-1.039,3.4,3.4,0,0,0-1.674-.4,4.091,4.091,0,0,0-1.771.357,5.643,5.643,0,0,0-1.22.765l.74.955a4.673,4.673,0,0,1,1.2-.656,3.108,3.108,0,0,1,1.026-.181,2.175,2.175,0,0,1,1.089.278,2.449,2.449,0,0,1,.812.728,3.553,3.553,0,0,1,.5,1.064,4.431,4.431,0,0,1,.181,1.278,5.568,5.568,0,0,1-.168,1.459,10.027,10.027,0,0,1-.311.959H335.53v1.245h5.926c.063-.109.147-.282.261-.513a6.562,6.562,0,0,0,.315-.824,7.957,7.957,0,0,0,.257-1.077,7.029,7.029,0,0,0,.105-1.245A5.979,5.979,0,0,0,342.162,59.466Z" transform="translate(-195.654 -52.182)" fill="#0a0203"/>
      </g>
      <g id="Group_6" data-name="Group 6" transform="translate(156.936)">
        <path id="Path_32" data-name="Path 32" d="M428.574,36.859c.13-13.916-2.927-21.7-5.577-25.532.9-1.194,1.464-1.926,1.5-1.964a2.7,2.7,0,0,1,1.674-.82,30.066,30.066,0,0,1,.946-4.016,22.581,22.581,0,0,1-3.545,2.061,2.467,2.467,0,0,1-.341,1.825c-.034.05-.463.618-1.165,1.552a16.547,16.547,0,0,0-4.5-3.735c-.475-.269-.98-.53-1.531-.778a2.594,2.594,0,0,0-.715-1.951,1.419,1.419,0,0,0-.82-1.135h0a1.774,1.774,0,0,0-1.468.408,3.321,3.321,0,0,0-1.981,1.077,38.069,38.069,0,0,0-5.585-.732A3.255,3.255,0,0,0,403.728.935,1.824,1.824,0,0,0,402.365.01h-.008a1.831,1.831,0,0,0-1.363.925,3.268,3.268,0,0,0-1.737,2.183,38.145,38.145,0,0,0-5.585.732,3.321,3.321,0,0,0-1.981-1.077,1.793,1.793,0,0,0-1.468-.408h0A1.42,1.42,0,0,0,389.4,3.5a2.6,2.6,0,0,0-.715,1.951c-.547.248-1.056.509-1.531.778a14.548,14.548,0,0,0-4.407,3.68c-.639-.845-1.026-1.358-1.056-1.4a2.453,2.453,0,0,1-.341-1.825A22.728,22.728,0,0,1,377.8,4.619a30.063,30.063,0,0,1,.946,4.016,2.7,2.7,0,0,1,1.674.82c.038.038.526.677,1.329,1.737-2.662,3.8-5.766,11.658-5.635,25.662.017,1.3-.543,13.428,3.415,21.608a19.459,19.459,0,0,0,3.793,5.059,14.473,14.473,0,0,0,6.3,3.512c.071.021.219.059.29.076a9.571,9.571,0,0,0,6.561-.252l-.151.37c-.042.1-.1.248-.13.332-.555,1.5-.185,3.062,1.85,3.3a5.238,5.238,0,0,1,1.838.412,5.722,5.722,0,0,1,1.649,1.232,7.29,7.29,0,0,1,1.039,1.468v0h0A7.465,7.465,0,0,1,403.61,72.5a5.745,5.745,0,0,1,1.649-1.232,5.238,5.238,0,0,1,1.838-.412c2.031-.236,2.41-1.787,1.855-3.289-.034-.088-.093-.244-.135-.341s-.151-.366-.151-.366c1.409.816,5.741,1.451,9.9-1.186a17.209,17.209,0,0,0,6.6-7.145C429.117,50.342,428.591,37.969,428.574,36.859ZM410.2,25.634a.765.765,0,0,1-.286.273,1.17,1.17,0,0,1-.681.16.761.761,0,0,1-.656-.332,11.921,11.921,0,0,1-1.262-2.49c-.429-1.026-.358-.858-.993-2.41a14.108,14.108,0,0,0-1.157-2.317,5.6,5.6,0,0,0-1.636-1.384,4.69,4.69,0,0,0-1.476-.315,9.068,9.068,0,0,0-2.439.2,2.53,2.53,0,0,0-1.22.648,1.144,1.144,0,0,1-.37.315,4.3,4.3,0,0,0-1.106.606,1.368,1.368,0,0,0-.294,2.12.141.141,0,0,0,.025.013c-.017-.269.013-.5.059-.492a1.933,1.933,0,0,0,1.2.223c.509-.067.828.7.828.7l.08-.223a1.916,1.916,0,0,0,.3.593.53.53,0,0,0,.076-.114c.151.189.4.315.421.631a1.224,1.224,0,0,1-.488.879c-.135.126-.942.791-1.8,1.665-.442.454-.669.728-1.115,1.22a1.041,1.041,0,0,1-.673.416h-.1a.78.78,0,0,1-.564-.252c-.088-.114-4.437-5.863-6.519-8.613,3.777-3.684,10.034-4.294,11.595-4.18.366.025.778.315.32.917a2.782,2.782,0,0,0,2.082-.4,2.744,2.744,0,0,0,2.082.4c-.458-.6-.046-.892.32-.917,1.548-.114,7.494.168,11.649,4.269C414.381,20.117,411.664,23.519,410.2,25.634Z" transform="translate(-376.096 -0.002)" fill="#fff"/>
        <g id="Group_3" data-name="Group 3" transform="translate(0.732 19.552)">
          <path id="Path_33" data-name="Path 33" d="M470.279,60.12a36.431,36.431,0,0,1-5.888,3.974l-.946.513,0-.681c0-.076.261-9.269-4.21-17.2-.282.374-1.224,1.573-2.191,2.8a1.975,1.975,0,0,1,1.674.6,17.292,17.292,0,0,1,3.31,5.349,14.256,14.256,0,0,1,.749,5.013v0s-.538,9.362-1.611,18.332c-.971,8.15-1.51,9.219-1.51,9.219a5.836,5.836,0,0,1-1.026-2.25l-.088.08a7.1,7.1,0,0,1-.908-2.418,36.137,36.137,0,0,1-.416-6.674l0,.013a2.863,2.863,0,0,0-.357-1.253,5.644,5.644,0,0,1-.416-1.144c0-.008,0-.013-.009-.017a7.531,7.531,0,0,0-2.359-3.987,11.664,11.664,0,0,1-1.657-2.717c-.021.017-.034.025-.063.05a2.345,2.345,0,0,0-.744,1.03A9.867,9.867,0,0,1,451.669,72a2.937,2.937,0,0,1-.307-.248c.1.967-.362,2.09-.067,2.978l-.572-.076a.929.929,0,0,0,.063.139.849.849,0,0,0,.29.248c.025.017.143.067.185.088a5.672,5.672,0,0,0,.589.206,1.738,1.738,0,0,0-.252-1.825c-.273-.328.055-.812.618-.564a7.986,7.986,0,0,1,2.355,1.577c1.2,1.135,1.548,2.229,1.291,2.448-.2.168-.345.13-.58.05a.354.354,0,0,1-.021.13.691.691,0,0,1-.513.446l-.025.042c-.126.181-.332.244-.7.24a1.763,1.763,0,0,1-.7-.21.926.926,0,0,1-.235-.172l-.21.172a50.774,50.774,0,0,1,4.054,5.686,17.71,17.71,0,0,1,1.354,3.028,2.39,2.39,0,0,1-1.144.017,4.225,4.225,0,0,1,.307,1.686,3.439,3.439,0,0,1-1.838-.425c.021.105.038.21.055.32.58.416,1.232.9,1.514,1.1-2.839,1.333-6.952.719-7.032.711-.193-.025-.374-.05-.53-.076-.029.071-.063.164-.1.261.278.66.921,2.191,1.068,2.5a9.458,9.458,0,0,0,6.064.938A8.191,8.191,0,0,0,458.2,93a15.927,15.927,0,0,0,4.878-3.15,18.855,18.855,0,0,0,3.659-4.689c3.142-6.136,3.659-15.241,3.659-18.921,0-1.2,0-1.855,0-1.909C470.392,63.073,470.325,61.054,470.279,60.12Z" transform="translate(-419.373 -46.625)" fill="#ee343f"/>
          <path id="Path_34" data-name="Path 34" d="M398.117,92.236c.122-.336.694-1.7.984-2.385-.042-.122-.08-.24-.114-.357-.391.067-.786.122-1.182.164-.265.025-4.176.627-7.015-.7.345-.244.992-.774,1.871-1.342.013-.059.021-.118.034-.172a3.393,3.393,0,0,1-1.838.425,4.238,4.238,0,0,1,.307-1.686,2.361,2.361,0,0,1-1.144-.013,17.548,17.548,0,0,1,1.354-3.028,33.824,33.824,0,0,1,3.108-4.391,2.3,2.3,0,0,1,.551-.984c.025-.029.147-.16.172-.185-.118-.1-.231-.193-.336-.273a.859.859,0,0,1-.278.214,1.955,1.955,0,0,1-.7.21.727.727,0,0,1-.7-.24l-.025-.042a.7.7,0,0,1-.517-.446.5.5,0,0,1-.021-.135.455.455,0,0,1-.517-.071c-.252-.214.1-1.308,1.291-2.448a8.039,8.039,0,0,1,2.355-1.577c.564-.248.9.235.618.568a1.742,1.742,0,0,0-.248,1.829c.345-.114.475-.168.526-.189a.917.917,0,0,0,.471-.332.606.606,0,0,0,.059-.126l-.5.059c.257-.627-.139-2.162.122-3.158a2.016,2.016,0,0,1-.341.2,12.555,12.555,0,0,1-.084-3.045,2.073,2.073,0,0,0-.618-.854,9.9,9.9,0,0,1-1.59,2.595,7.529,7.529,0,0,0-2.363,3.987c0,.008,0,.013-.008.017a5.747,5.747,0,0,1-.416,1.144,2.864,2.864,0,0,0-.357,1.253v-.008a36.119,36.119,0,0,1-.416,6.67,7.1,7.1,0,0,1-.908,2.418l-.088-.08a5.836,5.836,0,0,1-1.026,2.25s-.534-1.068-1.506-9.214c-1.068-8.97-1.611-18.332-1.611-18.332l0,0a14.27,14.27,0,0,1,.749-5.013,17.215,17.215,0,0,1,3.31-5.349,1.975,1.975,0,0,1,1.842-.572l-.37-.492c-.614-.816-1.329-1.716-1.935-2.519-4.382,7.717-4.273,16.927-4.273,17l.008.984-.77-.408a37.554,37.554,0,0,1-6.064-4.067c-.046.934-.143,4.1-.143,4.1,0,.055,0,.723,0,1.926,0,3.68.66,12.713,3.663,18.921a18.293,18.293,0,0,0,3.566,4.748,13.884,13.884,0,0,0,5.32,3.116l.463.151a9.5,9.5,0,0,0,7.246-.648Z" transform="translate(-377.836 -46.48)" fill="#ee343f"/>
          <path id="Path_35" data-name="Path 35" d="M427.641,155.146a40.528,40.528,0,0,1,.463-4.126,2.594,2.594,0,0,1-.681.513c-.05,0-.114-.059-.185-.147-.685,1.674-1.649,4.029-1.657,4.054A1.914,1.914,0,0,1,427.641,155.146Z" transform="translate(-405.501 -107.055)" fill="#ee343f"/>
          <path id="Path_36" data-name="Path 36" d="M434.522,154.678a45.08,45.08,0,0,0-.7-5.951,1.65,1.65,0,0,1-.093-.143,2.734,2.734,0,0,1-.164-.244,8.278,8.278,0,0,1-.391,1.085,2.562,2.562,0,0,1-.564.871,4.076,4.076,0,0,1-1.4-1.724,4.1,4.1,0,0,1-1.384,1.7,2.723,2.723,0,0,1-.564-.875,6.241,6.241,0,0,1-.231-.585,47.18,47.18,0,0,0-.622,5.863c-1.7-1.127-2.734,0-2.385.782a1.14,1.14,0,0,0,.114.185,1.089,1.089,0,0,0,.845.446,5.5,5.5,0,0,1,2.094.479,6.719,6.719,0,0,1,2.389,1.964,6.746,6.746,0,0,1,2.385-1.964,5.484,5.484,0,0,1,2.094-.479,1.177,1.177,0,0,0,.845-.446.905.905,0,0,0,.114-.185C437.255,154.678,436.221,153.555,434.522,154.678Z" transform="translate(-405.72 -105.502)" fill="#ee343f"/>
          <path id="Path_37" data-name="Path 37" d="M446.968,151.668a2.354,2.354,0,0,1-.568-.408,33.169,33.169,0,0,1,.509,4.02,1.913,1.913,0,0,1,2.057.29c-.008-.025-1.039-2.666-1.665-4.273C447.153,151.508,447.006,151.672,446.968,151.668Z" transform="translate(-417.565 -107.194)" fill="#ee343f"/>
        </g>
        <g id="Group_4" data-name="Group 4" transform="translate(23.679 30.036)">
          <path id="Path_38" data-name="Path 38" d="M432.4,71.41h0" transform="translate(-432.401 -71.41)" fill="#231f20"/>
        </g>
        <g id="Group_5" data-name="Group 5" transform="translate(22.737 30.442)">
          <path id="Path_39" data-name="Path 39" d="M430.165,72.377h0" transform="translate(-430.161 -72.376)" fill="#231f20"/>
        </g>
        <path id="Path_40" data-name="Path 40" d="M414.209,34.946a1.717,1.717,0,0,1-.883,1.249c-.282-.9-.454-1.623.82-4.277-.875,2.607-.5,3.47-.5,3.47A1.373,1.373,0,0,0,414.209,34.946Zm-1.4-1.817s-.3-.589.475-2.856c-1.43,2.157-.8,3.659-.8,3.659a1.948,1.948,0,0,0,.942-1.186A1.292,1.292,0,0,1,412.8,33.13Zm5.118-3.856c-.236,2.284-.421,2.755-.66,3.15a1.607,1.607,0,0,1-.37-.606,1.665,1.665,0,0,0,.383,1.384C417.746,32.6,418.082,31.338,417.922,29.273Zm-.45-1.527c-.362,2.557-.77,3.142-1.051,3.575a2.23,2.23,0,0,1-.4-.786,1.892,1.892,0,0,0,.362,1.569A6.37,6.37,0,0,0,417.472,27.747Zm-1.922,2.473a3.732,3.732,0,0,1-.185-1.384,2.359,2.359,0,0,0,.114,2.237,6.657,6.657,0,0,0,1.333-4.281A7.368,7.368,0,0,1,415.55,30.219Zm-.917-1.455a7,7,0,0,1-.08-1.8,3.413,3.413,0,0,0-.072,2.721,6.193,6.193,0,0,0,1.6-3.974A6.315,6.315,0,0,1,414.634,28.764Zm3.112,4.319a1.078,1.078,0,0,0,.425.862,4.183,4.183,0,0,0,.454-2.91,5.773,5.773,0,0,1-.534,2.317S417.792,33.21,417.746,33.083Zm.866.791a.948.948,0,0,0,.4.744,3.679,3.679,0,0,0,.3-2.578,4.675,4.675,0,0,1-.437,2.086S418.658,33.983,418.612,33.874ZM387.445,32.5c-.244-.4-.429-.866-.664-3.15-.16,2.065.177,3.331.652,3.928a1.665,1.665,0,0,0,.383-1.384A1.582,1.582,0,0,1,387.445,32.5Zm.841-1.1c-.286-.437-.69-1.022-1.051-3.575a6.325,6.325,0,0,0,1.085,4.357,1.878,1.878,0,0,0,.362-1.569A2.229,2.229,0,0,1,388.286,31.4Zm.871-1.1a7.266,7.266,0,0,1-1.262-3.423,6.649,6.649,0,0,0,1.329,4.281,2.361,2.361,0,0,0,.114-2.237A3.67,3.67,0,0,1,389.157,30.3Zm.917-1.459a6.234,6.234,0,0,1-1.451-3.045,6.183,6.183,0,0,0,1.6,3.978,3.424,3.424,0,0,0-.071-2.725A6.97,6.97,0,0,1,390.073,28.836Zm-3.457,4.588a5.646,5.646,0,0,1-.534-2.317,4.183,4.183,0,0,0,.454,2.91,1.065,1.065,0,0,0,.425-.862C386.911,33.285,386.616,33.424,386.616,33.424Zm-.791.778a4.649,4.649,0,0,1-.437-2.086,3.679,3.679,0,0,0,.3,2.578.947.947,0,0,0,.408-.744A1.032,1.032,0,0,1,385.826,34.2Zm5.227,1.262a1.374,1.374,0,0,1-.555-.442,1.73,1.73,0,0,0,.879,1.249c.282-.9.454-1.623-.82-4.277C391.432,34.6,391.053,35.464,391.053,35.464Zm.85-2.258a1.292,1.292,0,0,1-.614-.383,1.948,1.948,0,0,0,.942,1.186s.627-1.5-.8-3.659C392.205,32.617,391.9,33.205,391.9,33.205Zm6.409,11a6.326,6.326,0,0,0-.6-2.679,1.044,1.044,0,0,0-.135.53,3.639,3.639,0,0,1-.614-1.506,7.472,7.472,0,0,1-.479,1.594,1.06,1.06,0,0,0,.513-.185C397.21,42.941,398.026,43.156,398.312,44.207Zm8.55-2.073a1.1,1.1,0,0,0-.135-.53,6.263,6.263,0,0,0-.6,2.679c.286-1.051,1.1-1.27,1.312-2.246a1.059,1.059,0,0,0,.517.185,7.117,7.117,0,0,1-.484-1.594A3.527,3.527,0,0,1,406.862,42.134Zm-6.325-1.165a6.674,6.674,0,0,0-.845-2.3A2.722,2.722,0,0,0,400.537,40.969Zm3.23,1.3a5.09,5.09,0,0,0,.694-2.835A4.908,4.908,0,0,0,403.767,42.264Zm-1.03.681a2.316,2.316,0,0,0-.046-1.964A2.494,2.494,0,0,0,402.736,42.945Zm-.786-2.107a2.674,2.674,0,0,0-.143-2.212A2.82,2.82,0,0,0,401.95,40.838Zm5.623-7.183a9.2,9.2,0,0,0-.774,2.637C406.971,36.141,407.859,34.03,407.573,33.655Zm.038-2.385c-.008-.025.807-1.421.349-2.2C407.43,29.189,407.623,31.279,407.61,31.271Zm-2.33,3.428a4.183,4.183,0,0,0,1.22-2.734,2.7,2.7,0,0,1-1.22,1.451,1.862,1.862,0,0,1-.694-.959A2.563,2.563,0,0,0,405.281,34.7Zm2.481-1.737c.341-.534.807-1.308.421-1.808A14.819,14.819,0,0,0,407.762,32.961Zm-3.932,5.955a4.879,4.879,0,0,0,.66-2.549A4.164,4.164,0,0,0,403.83,38.916Zm1.821-1.619a3.323,3.323,0,0,0,.816-3.078A6.8,6.8,0,0,0,405.651,37.3Zm-1.628-3.234a3.777,3.777,0,0,1-1.081,1.771,3.32,3.32,0,0,1-.774-1.1,2.323,2.323,0,0,0,.976,2.2A3.686,3.686,0,0,0,404.023,34.063Zm-3.268,3.1a3.839,3.839,0,0,1-1.119-1.161,5.1,5.1,0,0,0,1.518,2.33,4,4,0,0,0,.214-3.1A6.207,6.207,0,0,1,400.755,37.167Zm-4.412-8.34c-.093-.606.656-1.165.4-2.141A1.916,1.916,0,0,0,396.344,28.827Zm1.514,7.191a6.288,6.288,0,0,0,1.085,1.375c-.526-.8-.946-2.275-1.468-2.675A2.767,2.767,0,0,0,397.858,36.019Zm-.37-3.3a3.06,3.06,0,0,0,.951,2.431A3.83,3.83,0,0,0,397.488,32.717Zm.875-2.313a8,8,0,0,1-.135,1.577,1.867,1.867,0,0,1-.765-.538,6.328,6.328,0,0,0,1.207,1.7A4.194,4.194,0,0,0,398.362,30.4Zm-.542-3.184a22.328,22.328,0,0,1,1.274-2.654A2.652,2.652,0,0,0,397.82,27.221Zm-1.06,5.408a6.875,6.875,0,0,0-.61-2.671A5.022,5.022,0,0,0,396.76,32.629Zm3.083-4.075c-.833,1.035.45,2.326.446,2.342C400.28,30.888,400.389,28.941,399.843,28.554Zm.614-2.826a1.526,1.526,0,0,0-.429,2.267A7.988,7.988,0,0,0,400.457,25.728Zm.723,8.314a3.864,3.864,0,0,0,.5-2.809,2.255,2.255,0,0,1-.807,1.59,1.993,1.993,0,0,1-.711-.887A2.561,2.561,0,0,0,401.18,34.042Zm6.279-8.163a7.276,7.276,0,0,0,.749,2.4A2.228,2.228,0,0,0,407.459,25.879Zm-1.67-2.759c-.109.593.845,1.493.841,1.5A1.435,1.435,0,0,0,405.789,23.12Zm1.4,4.534a3.381,3.381,0,0,1-.854,1.8,5.646,5.646,0,0,1-.841-.875,3.7,3.7,0,0,0,.866,2.078A3.275,3.275,0,0,0,407.19,27.654Zm-2.633-2.443c-.5.538-.034,1.6.252,2.561C405.07,27.3,405.386,25.719,404.557,25.211Zm.425-1.5a1.338,1.338,0,0,0-1.215-1.447C403.7,22.813,404.637,23.15,404.982,23.709ZM403.813,21.7c.244.248,1.026.429,1.464.841A1.052,1.052,0,0,0,403.813,21.7Zm-1.072,3.049a1.191,1.191,0,0,0-.29,1.489C402.45,26.233,403.367,25.253,402.74,24.752Zm1.127,7.8a4.048,4.048,0,0,0,1.035-2.7,5.892,5.892,0,0,1-1.123,1.4,4.921,4.921,0,0,1-.925-.854A3.658,3.658,0,0,0,403.867,32.549Zm-1.4-5.009a2.482,2.482,0,0,0,0,2.57C402.454,30.1,403.039,28.352,402.467,27.54Zm.286-9.008c.231.231.963.543,1.375.925C404.069,18.827,403.518,18.49,402.753,18.532Zm.383.728a2.246,2.246,0,0,0-1.3-.74A1.5,1.5,0,0,0,403.136,19.26Zm1.518,1.291a1.5,1.5,0,0,0-1.119-.782,2.453,2.453,0,0,1,.4.656,3.022,3.022,0,0,1-.664.139A1.553,1.553,0,0,0,404.654,20.551Zm-6.636-1.829c-.067.042-.126.252.114.261.2.008.24-.214.24-.214S398.114,18.658,398.018,18.721ZM404.444,6.13c-.236-.172-.387-.294-.631-.463a7.69,7.69,0,0,0-.614.475c.214.16.374.286.606.454C404.052,6.412,404.166,6.324,404.444,6.13Zm-3.936,12.053a.684.684,0,0,1,.05.4.628.628,0,0,1-.526.58.648.648,0,0,1-.828-.576.751.751,0,0,1,.076-.345c-.135.017-.139.109-.269.273-.08.1-.206.088-.391.21a1.041,1.041,0,0,1,.572-.765,4.578,4.578,0,0,1,3.091.3A7.42,7.42,0,0,0,401.2,18.2C400.747,18.179,400.507,18.183,400.507,18.183Zm-.2.008c-.05-.029-.391-.025-.429.046s.21.181.29.21a.142.142,0,0,0,.16-.08C400.364,18.3,400.356,18.217,400.305,18.192Zm5.127-9.029a48.613,48.613,0,0,0-11.855.95,4.544,4.544,0,0,0-.568-1.026c-.774-.828-1.093.071-1.1.177.976.055,1.144.555,1.144.555a2.325,2.325,0,0,1-.942.934,3.563,3.563,0,0,1-1.657.58c-1.834.088-1.333-1.817-.223-2.595-.143.172-.8,1.169-.4,1.682.458.572,2.145.105,2.557-.408a1.6,1.6,0,0,0-1.236-.219A2.723,2.723,0,0,1,392.2,7.972a2.61,2.61,0,0,1,1.522,1.316,46.653,46.653,0,0,1,7.81-.929c-.059-.463-.219-2.216-.227-2.321-.025-.29.168-.416.353-.534a1.345,1.345,0,0,0,.845.686,2.932,2.932,0,0,1-.543.458c.029.349.059.993.072,1.249a10.211,10.211,0,0,1,1.783-.618,2.654,2.654,0,0,1,.807-.076,1.507,1.507,0,0,1,.711.3.806.806,0,0,1,.29.559A3.04,3.04,0,0,1,405.432,9.162Zm-.627-1.14c-.378-.618-1.783-.063-2.675.307.517,0,.959-.021,1.51-.013.223,0,.8.008,1.194.021A.31.31,0,0,0,404.805,8.023ZM392.18,11.3c-.172-.055-.332-.105-.543-.164-.139.2-.286.467-.379.635.265.084.463.151.749.236.114-.177.181-.29.278-.437.172.055.328.105.53.168.16-.248.227-.37.408-.635-.286-.088-.479-.156-.778-.236C392.357,11,392.26,11.156,392.18,11.3ZM414.55,9.04c.6-.05,1.152.1,1.409-.181a1.842,1.842,0,0,1-.883-.4c.16-.135.387.046.509.147.08-.08.126-.114.223-.2a.769.769,0,0,0-1.131.2,1.3,1.3,0,0,1,.341.2A2.209,2.209,0,0,0,414.55,9.04Zm-.345,1.114c-.244.564-.454,1.135-.736,1.649.168.067.4-.076.555-.172a5.375,5.375,0,0,0,1.569-2.452,2.588,2.588,0,0,0-.664.189C414.486,9.566,414.407,9.684,414.2,10.155Zm-5.614.269c.185.185.324.328.521.526.278-.151.4-.223.711-.378-.2-.2-.332-.341-.547-.538C409.044,10.146,408.767,10.315,408.59,10.424Zm5.013-.585a2.8,2.8,0,0,1-.614.913,23.342,23.342,0,0,0-4.576-1.11,3.15,3.15,0,0,1-1.384,1,6.172,6.172,0,0,1-1.829-.53,5.184,5.184,0,0,0,.606.013,4.019,4.019,0,0,0,1.956-.572c-1.093-.164-1.35-.467-.82-1.161.244-.315.639-.887,1.224-.74.454.118.568.761.513,1.249a22.284,22.284,0,0,1,4.155,1.022c.084-.357-.147-.534-.294-.791a4.38,4.38,0,0,1,.686-.572A1.306,1.306,0,0,1,413.6,9.839Zm-6.035-1.628a.813.813,0,0,0-.324.345c.1.151.29.214.585.257.038.008.114.013.156.017C408.123,8.51,407.833,8.119,407.568,8.212ZM393.93,10.8c.252.109.437.2.711.315.193-.231.278-.341.5-.585-.273-.118-.454-.206-.736-.315C394.228,10.4,394.052,10.647,393.93,10.8ZM425.164,58.51a17.21,17.21,0,0,1-6.6,7.145c-4.159,2.641-8.491,2.006-9.9,1.186,0,0,.114.273.151.366s.1.257.135.341c.559,1.5.181,3.053-1.855,3.289a5.238,5.238,0,0,0-1.838.412,5.723,5.723,0,0,0-1.649,1.232,7.463,7.463,0,0,0-1.039,1.468h0v0a7.463,7.463,0,0,0-1.039-1.468,5.667,5.667,0,0,0-1.649-1.232,5.238,5.238,0,0,0-1.838-.412c-2.031-.236-2.406-1.792-1.85-3.3.029-.084.088-.236.13-.332l.151-.37a9.571,9.571,0,0,1-6.561.252c-.072-.021-.219-.059-.29-.076a14.45,14.45,0,0,1-6.3-3.512,19.36,19.36,0,0,1-3.793-5.059c-3.953-8.18-3.4-20.313-3.415-21.608-.135-14.009,2.973-21.865,5.635-25.662-.8-1.06-1.291-1.7-1.329-1.737a2.7,2.7,0,0,0-1.674-.82A30.072,30.072,0,0,0,377.8,4.6a22.724,22.724,0,0,0,3.549,2.061,2.472,2.472,0,0,0,.341,1.825c.034.046.416.559,1.056,1.4a14.429,14.429,0,0,1,4.407-3.68c.475-.269.984-.53,1.531-.778a2.594,2.594,0,0,1,.715-1.951,1.419,1.419,0,0,1,.82-1.135h0a1.774,1.774,0,0,1,1.468.408,3.321,3.321,0,0,1,1.981,1.077,38.145,38.145,0,0,1,5.585-.732A3.261,3.261,0,0,1,401,.915a1.831,1.831,0,0,1,1.363-.925h.008a1.824,1.824,0,0,1,1.363.925A3.274,3.274,0,0,1,405.47,3.1a38.145,38.145,0,0,1,5.585.732,3.321,3.321,0,0,1,1.981-1.077,1.812,1.812,0,0,1,1.468-.408h0a1.42,1.42,0,0,1,.82,1.135,2.6,2.6,0,0,1,.715,1.951c.547.248,1.056.509,1.531.778a16.4,16.4,0,0,1,4.5,3.735c.707-.934,1.131-1.5,1.165-1.552a2.447,2.447,0,0,0,.341-1.825,22.584,22.584,0,0,0,3.545-2.061,30.063,30.063,0,0,0-.946,4.016,2.7,2.7,0,0,0-1.674.82c-.038.038-.6.77-1.5,1.964,2.649,3.827,5.711,11.616,5.577,25.532C428.592,37.958,429.117,50.33,425.164,58.51Zm-1.245-43.99a13.066,13.066,0,0,1-3.356.315,6.615,6.615,0,0,0-.74,3.318,2.773,2.773,0,0,1-1.4-.786c-.479.635-.744.988-1.249,1.653a36.036,36.036,0,0,1,4.475,17.138,40.21,40.21,0,0,0,6.018-4.147C427.263,24.748,426.14,19.268,423.919,14.52ZM416.947,36.4a5.675,5.675,0,0,0,.105,2.313,5.66,5.66,0,0,0,.955-1.914,5.11,5.11,0,0,0,.37,1.859c.526-.765.824-3.831.824-3.831s.017.071.286.168a12.728,12.728,0,0,0-.105-4.412,14.785,14.785,0,0,0-3.419-6.821c-1.173-1.384-2.166-.757-3.158.324-1.6,1.737-1.939,2.511-3.856,2.864-.021,0-.025,0-.008,0-.189.034-.05.126.328.122,2.309-.038,3.028-1.564,3.718-2.334.458-.509,1.047-.967,1.543-.681.185.109.812.841.164,2.645a1.58,1.58,0,0,0-.24-.862,11.036,11.036,0,0,1-1.186,2.973,4.367,4.367,0,0,1-.147-.639c-.227,1.459-1.535,2.978-1.72,5.059a1.423,1.423,0,0,1-.265-.908c-.984,1.817-2.01,5.084-1.375,6.725a10.625,10.625,0,0,1,1.527-4.815c-.677,2.136-1.464,4.786-.786,6.376a12.023,12.023,0,0,1,1.392-4.513c-.934,3.512-1.321,5.307-.282,6.662a10.523,10.523,0,0,1,1.085-4.946c-.484,2.742-1.178,5.139.1,6.342a12.129,12.129,0,0,1,.871-5.03c-.421,2.649-.786,5.2.067,6.481a13.837,13.837,0,0,1,.349-2.755c.223-1.157.568-2.271.568-2.271s-.269,1.85-.412,4.1c-.025.374-.034.757-.025,1.135a7.641,7.641,0,0,0,.139,1.384,3.489,3.489,0,0,0,.4,1.135,35.961,35.961,0,0,1,.98-6.771s-.341,2.8-.568,7.082c-.008.151-.017.3-.021.454-.282,6.157.551,8.129.812,8.714a3.647,3.647,0,0,1-.08-.908,6.778,6.778,0,0,1,.051-1.375,9.339,9.339,0,0,1-.467-2.872c.046-.917.114-1.825.185-2.713.067-.812.147-1.6.231-2.355.1-.69.16-1.35.257-2.052.139-.993.332-1.981.509-2.969.143-.782.063-.093.05.093-.072.887-.236,2.822-.391,4.82-.105,1.485-.437,4.433-.37,5.858a7.726,7.726,0,0,0,.408,1.964,8.576,8.576,0,0,0,.589,4.273s.248-.854.437-1.93a.507.507,0,0,1-.24.214,7.747,7.747,0,0,1-.257-3.549,5.8,5.8,0,0,1-.307-1.7,52.986,52.986,0,0,1,.5-5.286c.076-.585.16-1.161.24-1.695.055-.345.105-.694.16-1.039.076-.555.177-1.114.3-1.661.021-.093.038-.177.055-.252,0,.008-.017.4-.059.938-.193,2.368-.728,8.419-.736,8.9a5.64,5.64,0,0,0,.282,1.758,12.542,12.542,0,0,0,.076,2.826,6.433,6.433,0,0,0,.181-1s.336-2.456.728-5.947c.059-.538.118-1.077.172-1.615.055-.5.105-1.026.16-1.556.059-.622.122-1.245.177-1.867.025-.269.05-.538.072-.807.143-1.644.311-3.5.45-5.135,0,0,.219-2.662.269-3.461-.071-.055-.13-.1-.13-.1s-.3,3.285-1.178,4.441a4.232,4.232,0,0,1-.5-1.859,5.4,5.4,0,0,1-.993,1.531,4.452,4.452,0,0,1-.24-1.724,2.539,2.539,0,0,1-.9.9,3.621,3.621,0,0,1-.341-1.813,2.57,2.57,0,0,1-.744.639c-.105-.248-.694-1.178.366-4.613-.421,3.171-.172,3.541-.088,3.8a2.116,2.116,0,0,0,.488-.315,20.184,20.184,0,0,1,.324-2.263c-.156,2.523.042,3.314.235,3.8A4.2,4.2,0,0,0,416.947,36.4ZM409.2,37.478a33.78,33.78,0,0,1,1.257-6.914C408.737,32.44,408.99,36.8,409.2,37.478Zm.324-7.12c.547-1.64.088-2.469-.231-2.637C409.284,28.478,409.49,28.832,409.528,30.358Zm1.4,1.358a12.459,12.459,0,0,0,.673-3.65A7.036,7.036,0,0,0,410.924,31.717Zm1.493-3.221a5.008,5.008,0,0,0,.059-1.825,7.3,7.3,0,0,0-.471,2.868A7.475,7.475,0,0,0,412.417,28.5ZM408.46,40.817a.105.105,0,0,1,.021-.08.115.115,0,0,1,.021-.017l.029-.008a.518.518,0,0,1,.214.1c.059.038.135.084.227.135a3.723,3.723,0,0,1-.185-1.194,6.422,6.422,0,0,0-.193-1.485.37.37,0,0,1-.038-.067,2.633,2.633,0,0,1-.429.7,2.513,2.513,0,0,0-.58,1.127l-.017.088-.067-.063c.13.122-.357-.442-.366-.45a10.647,10.647,0,0,1-1.7,2.586v0a5.6,5.6,0,0,0-.694,2.485,10.51,10.51,0,0,0,0,2.645l.437-.471a7.823,7.823,0,0,1-.038.98,2.937,2.937,0,0,1-.172.728,1.73,1.73,0,0,0,1.527-.664l.118.315c.109.315.189.686-.059.879-.038.029-.454.391-.4.753a.512.512,0,0,0,.244.349l.017.013,0,.021a.449.449,0,0,0,.265.357.617.617,0,0,1,.008-.341.428.428,0,0,1,.378-.3.566.566,0,0,1,.2.025s.105,1,.189,1.4a12,12,0,0,1,.223,1.342c.013.114.025.231.038.345.038.341.236.37.412.4a2.35,2.35,0,0,0,.421-.008l.017.008-.025.013c-.257.071-.24.172-.231.206a1.1,1.1,0,0,1,.025.652l.038.038a.771.771,0,0,0,.345-.892l0-.029.025-.017c.294-.172.223-.765-.2-1.67-.2-.425-.282-1.135-.151-1.2a.06.06,0,0,1,.025-.008c.067-.013.151,0,.353.29.139.2.278.374.454.6a.97.97,0,0,1,.278.576.192.192,0,0,1-.055.139.249.249,0,0,1-.126.038,1.018,1.018,0,0,1-.278-.021c.1.1.454.513.564.383.269-.311.025.189.5.244a.509.509,0,0,0,.538-.559,1.952,1.952,0,0,0-.038-.328,1.863,1.863,0,0,0-.467-.837l-.105-.114c-.791-.875-.728-1.068-.677-1.152.076-.135.147-.177.357-.181a5.108,5.108,0,0,1,.669.042c.32.063.85.143.833.315a.138.138,0,0,1-.084.093c-.109.046-.294.114-.32.067a.778.778,0,0,0,.3.21c.135.063.681.214.849-.038l.055-.114c.1,0,.362-.042.416-.227.05-.168-.168-.4-.4-.521A9.747,9.747,0,0,0,410.815,49c-.177-.05-.4-.093-.572-.143l-.955-.248c-.025-.008-.521-.168-.711-.252-.092-.042-.164-.076-.206-.1a1.1,1.1,0,0,1-.4-.349,4.078,4.078,0,0,1-.324-.959,2.107,2.107,0,0,0,.757.311,4.2,4.2,0,0,1-.029-.858c.147-1.577.181-2.485.181-2.485s.273.282.315.328a10.091,10.091,0,0,0-.1-1.594v-.013A15.658,15.658,0,0,0,408.46,40.817Zm1.14,7.507.74.193c.109.034.231.063.357.088a2.916,2.916,0,0,0,.177-1.081c-.017-.408.921.458,1.548,1.081.261.265.311.151.16-.055a8.849,8.849,0,0,0-2.212-1.884c-.6-.37-.9-.282-.69.05A1.909,1.909,0,0,1,409.6,48.324Zm1.106,6.14c.707.883,1.821,2.536,2.246,2.982.921.963,1.312,1.068,2.019,1.114a12.621,12.621,0,0,0-1.539-3,27.342,27.342,0,0,0-2.485-3.44,1.568,1.568,0,0,1-.067.5c-.017.038-.034.071-.05.105a.9.9,0,0,1-.252.282.853.853,0,0,1-.543.143.73.73,0,0,1-.471-.219.547.547,0,0,1-.341-.088.924.924,0,0,1-.181.761,1.327,1.327,0,0,1-.366.942.757.757,0,0,0,.05.071c.231.412.13.614.021.744-.1.114-1.215,1.354-1.464,1.581a.46.46,0,0,1-.614-.038l-.185-.151s-.286.29-.513.517a.7.7,0,0,0,.059.055v0a4.321,4.321,0,0,0,1.253.77c.4.172,1.59.61,2.385.938-.189-.589-.412-1.257-.639-1.918.2.282.778,1.3,1.27,2.2-.034-.017.063.029.029.017a20.994,20.994,0,0,1,2.128,1.106c-.05-.227-.1-.374-.1-.374a10.886,10.886,0,0,1-.992-1.182,12.4,12.4,0,0,1-1.6-3.2c.921,1.392,1.157,1.779,1.522,2.271a5.178,5.178,0,0,0,2.877,2.25c-.168-.866-.475-1.06-.475-1.06a8.362,8.362,0,0,1-1.19-1.312c.147.2.286.387-.034-.042-.236-.324-.143-.2-.021-.025A17.93,17.93,0,0,1,410.706,54.464Zm-3.179,7.662a18.555,18.555,0,0,0,6.157-.32,24.9,24.9,0,0,0-5.32-2.776,10.762,10.762,0,0,1-1.918-.925,7.754,7.754,0,0,1-.875-.707c-.972-.892-3.516-3.545-3.966-4.037l-1.691,1.56a63.814,63.814,0,0,0,5.61,4.988,33.767,33.767,0,0,0,5.572,1.72,22.085,22.085,0,0,1-5.577-1.211c-1.447-.585-6.035-5.106-6.035-5.106l-1.11,1.026a31.869,31.869,0,0,0,3.793,3.629A10.155,10.155,0,0,0,407.526,62.127Zm-4.857-1.005a3.079,3.079,0,0,0,.879,1.867,2.557,2.557,0,0,0,.391-1.165A7.044,7.044,0,0,1,402.669,61.122Zm-7.65-5.526a12.272,12.272,0,0,1-1.6,3.2,10.285,10.285,0,0,1-1.005,1.173s-.029.105-.067.278l-.122.067.669-.37c.109-.055.219-.109.332-.164.442-.24.929-.463,1.417-.673.479-.862,1.051-1.884,1.228-2.153a9.472,9.472,0,0,1-.681,1.93l.366-.147c.761-.3,1.421-.538,1.741-.69a4.332,4.332,0,0,0,.976-.593c.042-.029.114-.1.215-.189l-.543-.547-.185.151a.454.454,0,0,1-.61.038c-.248-.223-1.367-1.464-1.464-1.577-.109-.13-.236-.349.021-.749a.164.164,0,0,1,.017-.021,1.3,1.3,0,0,1-.4-.963.924.924,0,0,1-.181-.761.535.535,0,0,1-.336.088.709.709,0,0,1-.467.219h-.072a.764.764,0,0,1-.5-.16.681.681,0,0,1-.273-.349c-.008-.017-.013-.034-.021-.05a18.526,18.526,0,0,0-2.107,2.919,13.057,13.057,0,0,0-1.552,2.986c.707-.046,1.1-.151,2.019-1.114.429-.446,1.543-2.1,2.25-2.982a15.671,15.671,0,0,1-1.779,3.3,8.593,8.593,0,0,1-1.262,1.384s-.269.168-.433,1.035a5.215,5.215,0,0,0,2.877-2.254C393.862,57.375,394.1,56.988,395.019,55.6Zm-.639-4.643a1.878,1.878,0,0,0-.606,1.278.509.509,0,0,0,.538.559c.475-.05.231-.555.5-.244.109.126.467-.286.564-.383-.206.034-.5.067-.45-.236a1.4,1.4,0,0,1,.336-.58c.126-.156.513-.887.765-.8.118.084.046.778-.151,1.2-.425.9-.5,1.5-.2,1.67l.025.017,0,.029a.77.77,0,0,0,.349.892l.038-.038a1.028,1.028,0,0,1,.025-.652c0-.034.025-.139-.236-.206l-.021-.013.017-.008a2.357,2.357,0,0,0,.421.008c.177-.029.374-.059.412-.4.013-.114.025-.231.038-.345a13.266,13.266,0,0,1,.223-1.342c.088-.408.193-1.4.193-1.4a.566.566,0,0,1,.2-.025.428.428,0,0,1,.379.3.613.613,0,0,1,.008.341.441.441,0,0,0,.265-.357V50.2l.017-.013a.5.5,0,0,0,.24-.349c.055-.357-.357-.723-.4-.753-.248-.193-.164-.564-.059-.879l.143-.378a1.8,1.8,0,0,0,.484.416,1.686,1.686,0,0,0,1.152.307,2.938,2.938,0,0,1-.172-.728,7.827,7.827,0,0,1-.038-.98l.437.471a7.022,7.022,0,0,0,.093-2.5,9.207,9.207,0,0,0-.681-2.9,5.029,5.029,0,0,0-.374-.85.95.95,0,0,1-.345.492,6.9,6.9,0,0,1-1.173-1.968,1.884,1.884,0,0,1-.362.45l-.067.063-.013-.088a2.52,2.52,0,0,0-.585-1.127,2.527,2.527,0,0,1-.429-.7,6.572,6.572,0,0,0-.21,1.522,3.7,3.7,0,0,1-.185,1.194c.093-.05.164-.1.227-.135.109-.071.164-.105.21-.1l.034.008.017.017a.121.121,0,0,1,.021.084,15.963,15.963,0,0,0-.311,1.838,5.972,5.972,0,0,0,.05,1.506,5.537,5.537,0,0,1,.492-.282,7.087,7.087,0,0,0-.139,2.523,4.149,4.149,0,0,1-.034.858,1.919,1.919,0,0,0,.694-.269,4.035,4.035,0,0,1-.32.946,3.186,3.186,0,0,1-1.825.828,10.905,10.905,0,0,0-2.2.707c-.231.118-.454.353-.4.521s.32.227.416.227l.055.114c.168.252.715.1.85.038a.816.816,0,0,0,.3-.21c-.025.046-.206-.021-.32-.067a.141.141,0,0,1-.08-.093c-.038-.32,1.3-.362,1.5-.357s.278.046.357.181C395.107,49.884,395.175,50.078,394.38,50.953Zm.387-4.26c.206-.328-.093-.416-.69-.046a8.83,8.83,0,0,0-2.212,1.884c-.151.206-.1.32.16.055.622-.627,1.564-1.493,1.548-1.081a2.8,2.8,0,0,0,.181,1.089c.1-.025.193-.046.282-.071l.812-.214A1.867,1.867,0,0,1,394.767,46.692Zm-1.354-12.381a10.624,10.624,0,0,1,1.527,4.815c.635-1.64-.387-4.9-1.375-6.72a1.417,1.417,0,0,1-.261.908c-.189-2.086-1.493-3.6-1.72-5.063a4.371,4.371,0,0,1-.147.639,11.093,11.093,0,0,1-1.182-2.973,1.581,1.581,0,0,0-.24.862c-.652-1.8-.021-2.536.164-2.641.5-.286,1.085.172,1.543.681.69.765,1.413,2.292,3.718,2.33.378.008.522-.084.328-.122.021,0,.013,0-.008,0-1.914-.353-2.254-1.123-3.852-2.864-.992-1.081-1.985-1.707-3.158-.324a14.76,14.76,0,0,0-3.423,6.821,12.728,12.728,0,0,0-.105,4.412c.269-.1.286-.168.286-.168s.3,3.07.828,3.835a5.15,5.15,0,0,0,.37-1.859,5.635,5.635,0,0,0,.955,1.909,5.752,5.752,0,0,0,.109-2.313,4.178,4.178,0,0,0,1.06,1.737c.193-.484.4-1.278.235-3.8a19.363,19.363,0,0,1,.324,2.263,2.166,2.166,0,0,0,.488.315c.084-.257.336-.622-.084-3.8,1.06,3.436.471,4.365.366,4.613a2.628,2.628,0,0,1-.744-.639,3.622,3.622,0,0,1-.341,1.813,2.526,2.526,0,0,1-.9-.9,4.474,4.474,0,0,1-.24,1.724,5.473,5.473,0,0,1-1-1.531,4.248,4.248,0,0,1-.5,1.859c-.879-1.157-1.178-4.441-1.178-4.441s-.059.042-.13.1c.051.8.147,2.044.269,3.449v.013c.139,1.636.3,3.495.45,5.135q.517,5.911,1.308,11.792a7.018,7.018,0,0,0,.181,1,12.767,12.767,0,0,0,.08-2.826,5.858,5.858,0,0,0,.278-1.754c-.008-.479-.551-6.527-.736-8.9-.025-.294-.059-.934-.059-.942.017.076.034.16.055.252.185.9.324,1.8.458,2.7.08.538.16,1.11.24,1.695a46.43,46.43,0,0,1,.5,5.286,5.8,5.8,0,0,1-.307,1.7,7.746,7.746,0,0,1-.257,3.549.487.487,0,0,1-.24-.214c.189,1.072.437,1.93.437,1.93a8.63,8.63,0,0,0,.585-4.273,7.521,7.521,0,0,0,.408-1.964c.017-.366-.05-1.527-.151-2.965-.181-2.574-.4-5.143-.606-7.713-.008-.122-.034-.429-.034-.45.029.109.055.231.084.357a62.294,62.294,0,0,1,1.182,10.089,9.657,9.657,0,0,1-.467,2.872,6.484,6.484,0,0,1,.051,1.375,3.651,3.651,0,0,1-.08.908c.257-.589,1.089-2.561.807-8.714-.008-.147-.013-.3-.021-.454-.227-4.285-.568-7.082-.568-7.082a35.98,35.98,0,0,1,.976,6.767,1.728,1.728,0,0,0,.084-.156,8.145,8.145,0,0,0,.425-3.495c-.143-2.254-.412-4.1-.408-4.092s.05.164.059.185a18.61,18.61,0,0,1,.5,2.073,20.379,20.379,0,0,1,.336,2.418c.008.118.013.231.017.336v0c.854-1.274.488-3.831.067-6.481a12.116,12.116,0,0,1,.871,5.03c1.283-1.2.585-3.6.1-6.342a10.492,10.492,0,0,1,1.085,4.946c1.043-1.354.656-3.15-.278-6.662a12.024,12.024,0,0,1,1.392,4.513C394.876,39.1,394.09,36.448,393.412,34.311Zm11.553,7.776a3.9,3.9,0,0,0,.753-2.254,1.2,1.2,0,0,1,.362.5A12.267,12.267,0,0,0,407.2,36.8c.231.1.025.05.29.181a11.733,11.733,0,0,0,.765-3.491c.084.025.236.025.294.1.122-.837.244-2.183.282-3.121a10.99,10.99,0,0,0-.336-3.432,9.829,9.829,0,0,0-1.06-2.338.859.859,0,0,0-.294.231,20.925,20.925,0,0,0-.782-1.985c-.526-1.022-.774-1.686-1.32-2.031a3.716,3.716,0,0,0,.656.055,9.29,9.29,0,0,0-.9-.875c.135-.088.362-.08.744-.013-.538-.492-.723-1.245-2.111-1.771a6.463,6.463,0,0,1,.77.029,2.359,2.359,0,0,0-1.291-.929c-1.421-.282-3.385-.324-4.3.761a1.838,1.838,0,0,1-.534.206,1.012,1.012,0,0,0-.265.135c-.16.118-.189.278.114.711-.4-.059-.5-.442-.572-.4a1.319,1.319,0,0,0-.421.429,1.563,1.563,0,0,0-.219.8.275.275,0,0,0,.45-.2c.025-.139.648-.193.862-.193.311,0,.6.076.992.055-.139.05-.58.177-.74.223s-.189.236-.025.252c.181.021.261-.059.437-.1.08.05,0,.244.063.357,1.144-.265,1.232.967,2.452.728-.576-.45-1.064-1.2-1.518-1.426,1.207.189,1.859,1.27,3.163,1.325a2.229,2.229,0,0,0-.16-.349c.446,0,.761.341.9.328a1.835,1.835,0,0,1-1.039.391c.088.164.576.2.74.231a1.183,1.183,0,0,1-1.157.236,5.14,5.14,0,0,1-1.3,1.1,2.523,2.523,0,0,1,.046-.4c-.559.324-.929.917-1.346,1.077.122-.206.227-.572.32-.753a18.668,18.668,0,0,0-3.4,3.566,7.128,7.128,0,0,0-.7,4.008c.055.976.475,3.751.547,4.3.118-.05.2-.1.3-.135a23.285,23.285,0,0,0,1.956,5.82.877.877,0,0,1,.32-.433,2.72,2.72,0,0,0,.824,1.556,1.5,1.5,0,0,1,.185-.711c.122.4.05,1.619.753,2.3a3.334,3.334,0,0,1,.177-1.072,8.712,8.712,0,0,0,.336,1.278,2.386,2.386,0,0,0,.749,1.047,4.128,4.128,0,0,1,.151-1.312,3.745,3.745,0,0,1,.559,1.649c.711-.547.988-2.342.988-2.342a1.546,1.546,0,0,1,.357.677,4.773,4.773,0,0,0,1-2.149A4.024,4.024,0,0,1,404.965,42.087Zm.715,9.5a8.589,8.589,0,0,0,1.417-.059,2.6,2.6,0,0,1-.055-.273q-.013-.095-.025-.2a.185.185,0,0,1-.021,0,3.626,3.626,0,0,1-1.623.105,6.4,6.4,0,0,1-.664-.164c-.261-.076-.673.353-.992.694-.273.29-.635.707-.8.871a.053.053,0,0,0,.008.088c.294.265,3.827,3.5,4.046,3.7.055.05.1.059.168-.017.16-.16.391-.408.618-.635l-3.549-3.339a.121.121,0,0,1-.034-.151c.025-.034.177-.185.2-.219a.113.113,0,0,1,.16.021c.05.059,1.144,1.077,1.144,1.077l1.506,1.342.946.841c.135-.139.118-.109.156-.151.139-.156.105-.261-.374-.723-.135-.13-2.448-2.443-2.448-2.443C405.23,51.684,405.4,51.6,405.68,51.592Zm-5.45.744c-.055.055-3.549,3.339-3.549,3.339.227.227.458.475.618.635.072.071.109.067.164.017.219-.2,3.751-3.432,4.046-3.7.034-.029.038-.059.008-.088-.164-.168-.521-.585-.8-.875-.32-.341-.732-.765-.988-.694a5.115,5.115,0,0,1-.664.164,3.626,3.626,0,0,1-1.623-.105c-.025,0-.05-.017-.076-.021-.008.084-.021.168-.029.248s-.029.151-.046.236a7.3,7.3,0,0,0,1.472.067c.278,0,.45.093.21.362l-2.448,2.443c-.488.458-.513.568-.374.723.038.042.021.017.156.151l.946-.837,1.506-1.342s1.1-1.018,1.144-1.077a.116.116,0,0,1,.16-.021c.025.029.177.185.2.214A.126.126,0,0,1,400.23,52.336Zm.341-8.255a1.148,1.148,0,0,0-.126-.475,3.73,3.73,0,0,0-.412-.454.465.465,0,0,1-.109-.177,1.68,1.68,0,0,0,.072.576.683.683,0,0,0,.3.4A.962.962,0,0,0,400.57,44.081Zm-.034,6.716s.257.252.307.3a9.132,9.132,0,0,0,.16-1.674A3.874,3.874,0,0,0,400.537,50.8Zm-1.409-.084c.135-.05.467-.2.648-.244.042-.008.114-.025.135-.025h0a10.381,10.381,0,0,1,.387-1.173A10.053,10.053,0,0,0,399.128,50.713Zm2.6,1.291c-.017-.475-.038-1-.072-1.224a2.441,2.441,0,0,0-.315.824C401.382,51.642,401.693,51.966,401.727,52Zm.236-3.163a1.128,1.128,0,0,0-.543-.807C401.441,48.476,401.962,48.842,401.962,48.842Zm.358-1.005a.044.044,0,0,0,0-.017.032.032,0,0,1,0,.017,1.086,1.086,0,0,1,.324-.353,9.44,9.44,0,0,0,1.346-.976,1.932,1.932,0,0,0,.269-.618,1.707,1.707,0,0,1-.572.513,5.392,5.392,0,0,0-1.249.913.743.743,0,0,0-.105.3.73.73,0,0,0-.067-.231c-.24-.5-.955-.7-1.388-1.2-.278-.324-.29-.454-.29-.454a1.19,1.19,0,0,0,.189.77,4.391,4.391,0,0,0,.955.786A1.56,1.56,0,0,1,402.32,47.836Zm-.467-1.792c0-.786-.858-.875-1.056-1.657C400.7,45.485,401.458,45.5,401.853,46.045Zm.4,3.129a3.481,3.481,0,0,0,.357-.193,1.3,1.3,0,0,0,.517-.492.854.854,0,0,0,.08-.547,1.1,1.1,0,0,1-.336.471,4.354,4.354,0,0,0-.391.4A2.092,2.092,0,0,0,402.253,49.174Zm.757.463c.08.471.139,1.569.16,1.922,0,0,0,0,0,0,.126-.13.261-.269.391-.4A4.032,4.032,0,0,0,403.009,49.636ZM402.3,52.5c.021-.025.286-.341.421-.484l.025-.025a5.064,5.064,0,0,0-.421-1.644C402.286,50.633,402.29,51.7,402.3,52.5Zm0,.324c0,.265.008.471.013.568.021-.025.278-.294.278-.294S402.379,52.9,402.307,52.824Zm.185.934c.492.517,1.152,1.207,1.585,1.628.282-.273.458-.442.458-.442l-1.691-1.56C402.77,53.463,402.648,53.59,402.492,53.758Zm2,2.027c.37.357.774.77,1.1,1.1.189-.206.349-.383.475-.521l-1.11-1.026S404.78,55.507,404.49,55.785Zm.332-5.236a9.159,9.159,0,0,0-1.051-1.22,10.071,10.071,0,0,1,.442,1.224h0a.213.213,0,0,1,.067-.038.421.421,0,0,1,.215-.046.793.793,0,0,1,.236.05A.621.621,0,0,1,404.822,50.549Zm-.412-6.38a3.183,3.183,0,0,1-.681.8,2.358,2.358,0,0,0,.114-.547,4.122,4.122,0,0,1-.652.858,2.135,2.135,0,0,0-.6.988,2.947,2.947,0,0,1,.744-.538A2.5,2.5,0,0,0,404.41,44.169Zm-7.9-6.847a2.3,2.3,0,0,0,1.018,1.8A6.316,6.316,0,0,0,396.508,37.323Zm12.73-11.267a1.17,1.17,0,0,0,.681-.16.734.734,0,0,0,.286-.273c1.459-2.115,4.176-5.518,6.207-8.2-4.155-4.1-10.1-4.382-11.649-4.269-.366.025-.782.315-.32.917a2.782,2.782,0,0,1-2.082-.4,2.744,2.744,0,0,1-2.082.4c.458-.6.046-.892-.32-.917-1.56-.114-7.818.5-11.595,4.18,2.082,2.755,6.43,8.5,6.519,8.613a.75.75,0,0,0,.564.252h.1a1.058,1.058,0,0,0,.673-.416c.45-.492.673-.765,1.114-1.22.854-.875,1.661-1.539,1.8-1.665a1.217,1.217,0,0,0,.488-.879c-.021-.315-.269-.437-.421-.631a.758.758,0,0,1-.076.114,1.916,1.916,0,0,1-.3-.593l-.08.223s-.32-.77-.828-.7a1.934,1.934,0,0,1-1.2-.223c-.046-.013-.072.223-.059.492a.03.03,0,0,1-.025-.013,1.368,1.368,0,0,1,.294-2.12,4.3,4.3,0,0,1,1.106-.606,1.193,1.193,0,0,0,.37-.315,2.53,2.53,0,0,1,1.22-.648,9.05,9.05,0,0,1,2.439-.2,4.782,4.782,0,0,1,1.476.315,5.547,5.547,0,0,1,1.636,1.384,14.1,14.1,0,0,1,1.157,2.317c.635,1.552.559,1.384.993,2.41a12.033,12.033,0,0,0,1.262,2.49A.727.727,0,0,0,409.238,26.056Zm7.482-9.042c.143-.185.282-.374.421-.559a18.081,18.081,0,0,0-7.814-4.046,21.01,21.01,0,0,0-4.807-.479c-.862.013-1.417.345-1.417.883-.534-.1-.681-.774-.749-.9-.05.282-.315.833-.744.9,0-.538-.555-.871-1.417-.883a21.041,21.041,0,0,0-4.811.479,17.326,17.326,0,0,0-7.768,3.936c.139.185.278.37.421.555a16.039,16.039,0,0,1,6.4-3.583,20.53,20.53,0,0,1,5.614-.744c1.009.046,1.152.618,1.035.934a1.632,1.632,0,0,1,2.544,0c-.118-.315.025-.887,1.035-.934a20.549,20.549,0,0,1,5.614.744A17.051,17.051,0,0,1,416.72,17.014Zm1.14-2.052a3.9,3.9,0,0,0,1.064,2.065,1.966,1.966,0,0,0,.286.185l.013.008a6.178,6.178,0,0,1,.837-3.011h0s0-.008,0-.008a6.453,6.453,0,0,0,2.629.017c-1.337-.9-1.047-1.914-2.04-3.015a3.708,3.708,0,0,0-.366-.357,1.519,1.519,0,0,0-.807-.345.554.554,0,0,0-.458.2c-.13.143-1.522,1.636-2.435,2.666C417.4,13.343,417.615,14.1,417.859,14.962Zm.913-4.946A14.482,14.482,0,0,0,414.579,7.3c-4.643-2.035-10.531-2.044-12.217-2.044a0,0,0,0,0,0,0,.015.015,0,0,1-.008,0c-1.682,0-7.574.008-12.213,2.044a14.424,14.424,0,0,0-4.193,2.721s2.1,2.355,2.645,2.994a1,1,0,0,1,.21,1.123c3.226-2.162,6.893-3.242,13.428-3.285l.294,0c6.422.059,10.2,1.144,13.39,3.289a1.015,1.015,0,0,1,.21-1.123C416.669,12.371,418.772,10.016,418.772,10.016Zm-33.064.686,0,0c-.13-.143-.463-.429-1.266.147-1.438,1.245-.976,2.376-2.456,3.373a7.6,7.6,0,0,0,1.312.126,5.334,5.334,0,0,0,.627-.038c.273-.029.492-.076.69-.105h0a6.176,6.176,0,0,1,.833,3.007c1.728-.917,1.022-3.878,2.637-3.844C387.176,12.346,385.859,10.866,385.708,10.7Zm1.123,5.968c1.266,1.691,2.225,2.965,2.414,3.226.446.606,1.964,2.431,1.951,2.2a21.32,21.32,0,0,0-1.522-2.233c-.854-1.157-1.75-2.355-2.624-3.52C386.97,16.455,386.894,16.568,386.831,16.669Zm6.279,11.473a12.46,12.46,0,0,0,.673,3.65A7.014,7.014,0,0,0,393.11,28.142Zm-.879-1.4a4.918,4.918,0,0,0,.059,1.825,7.235,7.235,0,0,0,.412,1.047A7.313,7.313,0,0,0,392.231,26.746Zm3.272,10.8c.219-.681.467-5.038-1.257-6.914A34.434,34.434,0,0,1,395.5,37.55Zm-4.744,24.283a18.548,18.548,0,0,0,6.157.32,10.341,10.341,0,0,0,4.849-1.775c-.336-.286-.749-.669-1.178-1.072a8.383,8.383,0,0,1-1.661,1.135,22.048,22.048,0,0,1-5.577,1.211,33.769,33.769,0,0,0,5.572-1.72,9.262,9.262,0,0,0,1.287-.984c-.534-.513-1.056-1.03-1.451-1.421a8.683,8.683,0,0,1-.761.6,10.885,10.885,0,0,1-1.918.921A25.047,25.047,0,0,0,390.759,61.832Zm9.845,0a6.932,6.932,0,0,0,.488,1.157,3.44,3.44,0,0,0,1.009-2.073,6.212,6.212,0,0,1-.593.442C401.151,61.559,400.831,61.723,400.6,61.832ZM415.668,19.8c.181-.248,1.06-1.421,2.242-2.994a2.236,2.236,0,0,1-.231-.315c-.816,1.085-1.644,2.2-2.435,3.272a21.322,21.322,0,0,0-1.522,2.233C413.7,22.229,415.227,20.4,415.668,19.8Zm6.826-7.822-.429.564a4.045,4.045,0,0,0,1.8,1.9A25.71,25.71,0,0,0,422.494,11.976Zm-.967-.576c.029.05.164.282.193.336,2.406-3.2,4.609-6.127,4.609-6.127a15.735,15.735,0,0,1-2.275,1.283,2.836,2.836,0,0,1-.5,1.846C423.49,8.834,422.7,9.869,421.526,11.4Zm-38.338-.917.362.479a15.731,15.731,0,0,1,7.074-5.026,1.4,1.4,0,0,1,.29-1.918l0,0a1.676,1.676,0,0,1,1.64,1.3,35.3,35.3,0,0,1,7.9-1.089,2.68,2.68,0,0,1,1.56-2.549.636.636,0,0,1,.336-.517h.008a.65.65,0,0,1,.341.517,2.68,2.68,0,0,1,1.56,2.549,35.615,35.615,0,0,1,7.9,1.089,1.666,1.666,0,0,1,1.636-1.3h0a1.4,1.4,0,0,1,.294,1.918,16.118,16.118,0,0,1,7.154,5.089c.13-.172.252-.332.37-.492a16.71,16.71,0,0,0-6.531-4.786,1.877,1.877,0,0,0-.479-1.993.852.852,0,0,0-.4-.728l0,0a1.1,1.1,0,0,0-.845.332A2.35,2.35,0,0,0,411.534,4.6a35.733,35.733,0,0,0-6.645-.887,2.775,2.775,0,0,0-1.661-2.431.88.88,0,0,0-1.741,0,2.78,2.78,0,0,0-1.661,2.431,35.733,35.733,0,0,0-6.645.887,2.35,2.35,0,0,0-1.825-1.253,1.093,1.093,0,0,0-.841-.336h0a.854.854,0,0,0-.4.732,1.873,1.873,0,0,0-.479,1.993A16.213,16.213,0,0,0,383.189,10.483Zm-.147,1.148a2.957,2.957,0,0,1,.206-.315c-1.093-1.43-1.829-2.389-1.9-2.477a2.861,2.861,0,0,1-.5-1.846A15.734,15.734,0,0,1,378.58,5.71S380.695,8.51,383.042,11.631ZM380.8,14.478a4.622,4.622,0,0,0,1.321-1.152,6.734,6.734,0,0,0,.513-.866l-.458-.585Q381.427,13.137,380.8,14.478Zm-3.768,17.533a40.214,40.214,0,0,0,6.018,4.147,36.78,36.78,0,0,1,4.534-17.251c-.5-.664-.723-.959-1.2-1.6a3.258,3.258,0,0,1-1.5.845,6.57,6.57,0,0,0-.74-3.318,13.055,13.055,0,0,1-3.356-.315C378.559,19.268,377.436,24.748,377.028,32.011Zm20.052,33.35.025-.067c.122-.336.694-1.7.984-2.385-.042-.122-.08-.24-.114-.357-.391.067-.786.122-1.182.164-.265.025-4.176.627-7.015-.7.345-.244.992-.774,1.871-1.342.013-.059.021-.118.034-.172a3.393,3.393,0,0,1-1.838.425,4.237,4.237,0,0,1,.307-1.686,2.361,2.361,0,0,1-1.144-.013,17.545,17.545,0,0,1,1.354-3.028,33.825,33.825,0,0,1,3.108-4.391,2.3,2.3,0,0,1,.551-.984c.025-.029.147-.16.172-.185-.118-.1-.231-.193-.336-.273a.858.858,0,0,1-.278.214,1.955,1.955,0,0,1-.7.21.727.727,0,0,1-.7-.24l-.025-.042a.7.7,0,0,1-.517-.446.5.5,0,0,1-.021-.135.455.455,0,0,1-.517-.071c-.252-.214.1-1.308,1.291-2.448a8.039,8.039,0,0,1,2.355-1.577c.564-.248.9.236.618.568a1.742,1.742,0,0,0-.248,1.829c.345-.114.475-.168.526-.189a.917.917,0,0,0,.471-.332.607.607,0,0,0,.059-.126l-.5.059c.257-.627-.139-2.162.122-3.158a2.015,2.015,0,0,1-.341.2,12.556,12.556,0,0,1-.084-3.045,2.073,2.073,0,0,0-.618-.854,9.9,9.9,0,0,1-1.59,2.595,7.53,7.53,0,0,0-2.364,3.987c0,.008,0,.013-.008.017a5.739,5.739,0,0,1-.416,1.144,2.863,2.863,0,0,0-.357,1.253v-.008a36.114,36.114,0,0,1-.416,6.67,7.1,7.1,0,0,1-.908,2.418l-.088-.08a5.836,5.836,0,0,1-1.026,2.25s-.534-1.068-1.506-9.214c-1.068-8.97-1.611-18.332-1.611-18.332l0,0a14.271,14.271,0,0,1,.749-5.013,17.215,17.215,0,0,1,3.31-5.349,1.974,1.974,0,0,1,1.842-.572l-.37-.492c-.614-.816-1.329-1.716-1.935-2.519-4.382,7.717-4.273,16.927-4.273,17l.008.984-.77-.408a37.56,37.56,0,0,1-6.064-4.067c-.046.934-.143,4.1-.143,4.1,0,.055,0,.723,0,1.926,0,3.68.66,12.713,3.663,18.921a18.293,18.293,0,0,0,3.566,4.748,13.884,13.884,0,0,0,5.32,3.116l.463.151A9.468,9.468,0,0,0,397.08,65.361Zm-.168,2.561a1.922,1.922,0,0,1,2.061-.29,40.5,40.5,0,0,1,.463-4.126,2.6,2.6,0,0,1-.681.513c-.051,0-.114-.059-.185-.147C397.879,65.542,396.92,67.9,396.912,67.922Zm8.718.795a45.075,45.075,0,0,0-.7-5.951,1.67,1.67,0,0,1-.093-.143,2.744,2.744,0,0,1-.164-.244,8.272,8.272,0,0,1-.391,1.085,2.561,2.561,0,0,1-.564.871,4.076,4.076,0,0,1-1.4-1.724,4.1,4.1,0,0,1-1.384,1.7,2.725,2.725,0,0,1-.564-.875,6.248,6.248,0,0,1-.231-.585,47.178,47.178,0,0,0-.622,5.863c-1.7-1.127-2.734,0-2.385.782a1.145,1.145,0,0,0,.114.185,1.089,1.089,0,0,0,.845.446,5.5,5.5,0,0,1,2.094.479,6.719,6.719,0,0,1,2.389,1.964,6.747,6.747,0,0,1,2.385-1.964,5.484,5.484,0,0,1,2.094-.479,1.177,1.177,0,0,0,.845-.446.907.907,0,0,0,.114-.185C408.363,68.717,407.329,67.594,405.63,68.717Zm2.6-.795c-.008-.025-1.039-2.666-1.665-4.273-.156.206-.3.37-.336.366a2.354,2.354,0,0,1-.568-.408,33.163,33.163,0,0,1,.509,4.02A1.928,1.928,0,0,1,408.233,67.922Zm19.636-30.7c-.017-1.236-.088-3.255-.135-4.189a36.435,36.435,0,0,1-5.888,3.974l-.946.513,0-.681c0-.076.261-9.269-4.21-17.2-.282.374-1.224,1.573-2.191,2.8a1.975,1.975,0,0,1,1.674.6,17.293,17.293,0,0,1,3.31,5.349,14.256,14.256,0,0,1,.749,5.013v0s-.538,9.362-1.611,18.332c-.971,8.15-1.51,9.219-1.51,9.219a5.836,5.836,0,0,1-1.026-2.25l-.088.08a7.1,7.1,0,0,1-.908-2.418,36.137,36.137,0,0,1-.416-6.674l0,.013a2.863,2.863,0,0,0-.357-1.253,5.651,5.651,0,0,1-.416-1.144c0-.008,0-.013-.008-.017A7.531,7.531,0,0,0,411.53,43.3a11.662,11.662,0,0,1-1.657-2.717c-.021.017-.034.025-.063.05a2.345,2.345,0,0,0-.744,1.03,9.868,9.868,0,0,1,.059,3.247,2.932,2.932,0,0,1-.307-.248c.1.967-.362,2.09-.067,2.978l-.572-.076a.931.931,0,0,0,.063.139.848.848,0,0,0,.29.248c.025.017.143.067.185.088a5.666,5.666,0,0,0,.589.206,1.738,1.738,0,0,0-.252-1.825c-.273-.328.055-.812.618-.564a7.987,7.987,0,0,1,2.355,1.577c1.2,1.135,1.548,2.229,1.291,2.448-.2.168-.345.13-.58.05a.353.353,0,0,1-.021.13.691.691,0,0,1-.513.446l-.025.042c-.126.181-.332.244-.7.24a1.762,1.762,0,0,1-.7-.21.927.927,0,0,1-.236-.172l-.21.172a50.787,50.787,0,0,1,4.054,5.686,17.708,17.708,0,0,1,1.354,3.028,2.39,2.39,0,0,1-1.144.017A4.225,4.225,0,0,1,414.907,61a3.439,3.439,0,0,1-1.838-.425c.021.105.038.21.055.32.58.416,1.232.9,1.514,1.1-2.839,1.333-6.952.719-7.032.711-.193-.025-.374-.05-.53-.076-.029.071-.063.164-.1.261.278.66.921,2.191,1.068,2.5a9.458,9.458,0,0,0,6.064.938,8.191,8.191,0,0,0,1.543-.412,15.928,15.928,0,0,0,4.878-3.15,18.855,18.855,0,0,0,3.659-4.689c3.142-6.136,3.659-15.241,3.659-18.921C427.864,37.932,427.868,37.28,427.868,37.226Z" transform="translate(-376.097 0.01)" fill="#0a0203"/>
      </g>
    </g>
  </g>
</svg>
